<?xml version="1.0" standalone="no"?>
<!DOCTYPE svg PUBLIC "-//W3C//DTD SVG 20010904//EN"
 "http://www.w3.org/TR/2001/REC-SVG-20010904/DTD/svg10.dtd">
<svg version="1.0" xmlns="http://www.w3.org/2000/svg"
 width="1726.000000pt" height="1730.000000pt" viewBox="0 0 1726.000000 1730.000000"
 preserveAspectRatio="xMidYMid meet">
<metadata>
Created by potrace 1.15, written by Peter Selinger 2001-2017
</metadata>
<g transform="translate(0.000000,1730.000000) scale(0.100000,-0.100000)"
fill="#1ab394" stroke="none">
<path d="M0 8685 l0 -8615 8623 2 8622 3 3 8613 2 8612 -8625 0 -8625 0 0
-8615z m6910 6705 l0 -380 345 0 345 0 0 -355 0 -355 973 2 972 3 3 352 2 353
343 2 342 3 3 378 2 377 395 0 395 0 -2 -412 -3 -413 -338 -3 -337 -2 2 -318
3 -317 338 -3 337 -2 0 -385 0 -385 325 0 325 0 0 -345 0 -345 345 0 345 0 0
-1140 0 -1140 -375 0 -375 0 0 718 c0 439 -4 722 -9 728 -6 5 -119 8 -280 6
l-271 -3 0 -724 0 -725 -360 0 -360 0 0 -350 0 -350 -740 0 -740 0 0 385 0
385 695 0 695 0 0 310 0 310 -1680 0 -1680 0 0 -310 0 -310 698 -2 697 -3 3
-382 2 -383 -740 0 -740 0 0 350 0 350 -365 0 -365 0 0 725 0 725 -275 0 -275
0 0 -725 0 -725 -377 2 -378 3 -3 1138 -2 1137 345 0 345 0 0 345 0 345 330 0
330 0 0 385 0 385 333 2 332 3 0 315 0 315 -332 3 -333 2 0 415 0 415 395 0
395 0 0 -380z m-1790 -6750 l0 -390 -750 0 -750 0 0 -1845 0 -1845 390 0 390
0 -2 848 -3 847 -237 3 -238 2 0 365 0 365 600 0 600 0 0 -1600 0 -1600 -1105
0 -1105 0 0 2620 0 2620 1105 0 1105 0 0 -390z m2540 -2230 l0 -2620 -345 0
-345 0 -2 1223 -3 1222 -400 0 -400 0 -3 -1223 -2 -1222 -340 0 -340 0 0 2620
0 2620 1090 0 1090 0 0 -2620z m2538 2253 l2 -363 740 0 740 0 0 -2255 0
-2255 -345 0 -345 0 -2 1868 -3 1867 -392 3 -393 2 0 -1870 0 -1870 -360 0
-360 0 -2 2223 -3 2222 -382 3 -383 2 0 -2225 0 -2225 -340 0 -340 0 0 2620 0
2620 1083 -2 1082 -3 3 -362z m4042 -28 l0 -395 -742 -2 -743 -3 -3 -802 c-1
-491 2 -803 7 -803 9 0 113 69 588 392 399 271 497 337 499 335 1 -1 32 -47
69 -102 38 -55 96 -140 130 -190 261 -383 269 -395 254 -409 -8 -7 -95 -68
-194 -135 -99 -66 -272 -183 -385 -260 -382 -260 -608 -411 -617 -411 -4 0
-13 8 -20 18 -60 91 -284 416 -305 443 l-27 34 -1 -887 0 -888 745 0 745 0 0
-390 0 -390 -1090 0 -1090 0 0 2620 0 2620 1090 0 1090 0 0 -395z m-3703
-5287 c67 -28 72 -32 67 -57 -2 -14 -13 -98 -24 -186 -12 -88 -34 -263 -50
-390 -16 -126 -39 -311 -50 -410 -12 -99 -30 -247 -41 -330 -30 -229 -77 -612
-85 -685 -11 -107 0 -103 -153 -60 l-134 36 -65 -42 c-91 -60 -167 -84 -287
-91 -281 -14 -516 131 -659 407 -142 277 -148 586 -16 865 66 141 181 269 300
338 184 105 417 110 612 11 26 -13 49 -24 51 -24 2 0 7 123 11 273 3 149 9
337 13 418 l6 145 216 -93 c119 -52 248 -108 288 -125z m-7046 153 c247 -57
412 -176 513 -371 83 -161 141 -444 117 -575 -41 -225 -245 -412 -608 -556
-43 -17 -81 -32 -84 -35 -4 -2 -1 -30 7 -62 8 -31 41 -176 74 -322 33 -146 70
-308 84 -360 13 -52 21 -98 18 -101 -8 -7 -257 -74 -442 -119 -69 -16 -182
-45 -252 -64 l-128 -35 -4 22 c-3 12 -28 189 -56 392 -28 204 -57 406 -65 450
-7 44 -28 186 -45 315 -17 129 -51 366 -75 525 -87 578 -118 827 -104 835 16
10 149 34 329 59 207 29 205 29 430 26 160 -3 224 -8 291 -24z m7800 -289 c7
-8 52 -372 47 -377 -3 -3 -611 -73 -615 -71 0 1 -4 106 -8 235 l-8 234 289 -7
c159 -4 292 -10 295 -14z m1137 -264 c56 -13 92 -26 92 -34 0 -7 -23 -86 -51
-176 -28 -90 -53 -169 -55 -176 -3 -10 -15 -5 -42 16 -78 62 -162 64 -231 6
-60 -51 -49 -120 30 -188 47 -40 220 -127 373 -187 312 -124 460 -263 498
-467 31 -167 -108 -432 -297 -567 -231 -165 -522 -219 -835 -155 -125 26 -466
135 -463 148 6 27 155 365 168 380 1 1 18 -5 38 -13 58 -24 172 -45 246 -45
164 0 261 71 261 190 0 35 -7 48 -45 89 -37 40 -68 59 -163 101 -159 69 -243
124 -330 213 -110 114 -141 203 -122 354 14 109 41 180 98 256 108 141 293
245 497 276 82 13 222 4 333 -21z m-7463 -53 c100 -18 202 -68 295 -146 l70
-59 132 15 c175 20 177 19 183 -7 3 -13 26 -187 50 -388 38 -305 62 -482 110
-831 l5 -37 -73 -30 c-39 -17 -152 -65 -250 -106 -98 -42 -182 -76 -188 -76
-5 0 -9 29 -9 65 0 36 -2 65 -5 65 -3 0 -34 -24 -69 -53 -142 -116 -258 -165
-416 -174 -263 -14 -470 113 -619 378 -69 124 -103 266 -104 439 -1 143 13
237 54 365 53 166 176 342 309 444 84 63 205 120 290 136 97 17 138 17 235 0z
m3177 1 c118 -21 225 -77 324 -168 l42 -38 137 15 c199 22 181 27 189 -52 4
-38 27 -221 52 -408 68 -508 104 -798 100 -802 -6 -6 -459 -201 -487 -210 -13
-4 -17 7 -23 58 -3 34 -8 64 -10 66 -2 3 -37 -23 -77 -57 -146 -122 -304 -178
-478 -167 -173 11 -272 58 -406 192 -74 74 -99 108 -142 190 -84 163 -98 226
-98 445 0 159 4 198 23 274 27 106 94 254 156 340 91 128 247 250 381 297 108
38 202 45 317 25z m-1055 -62 c109 -22 169 -47 166 -70 -1 -11 -16 -107 -32
-214 -17 -107 -35 -231 -41 -275 -17 -123 -13 -119 -68 -84 -84 53 -193 82
-312 83 -94 1 -111 -2 -162 -26 -75 -35 -160 -119 -153 -150 2 -13 23 -144 45
-293 23 -148 52 -334 65 -412 34 -196 35 -189 -22 -197 -53 -7 -611 -66 -623
-66 -4 0 -11 42 -14 92 -4 51 -11 154 -16 228 -6 74 -19 268 -30 430 -11 162
-30 416 -41 563 -11 148 -18 271 -16 273 6 6 537 47 542 42 3 -2 10 -39 17
-81 6 -42 16 -77 20 -77 5 0 36 24 69 53 182 160 396 225 606 181z m6935 -33
c177 -46 343 -145 472 -282 66 -70 155 -195 145 -203 -2 -2 -49 -29 -104 -61
-202 -117 -333 -194 -480 -280 -82 -49 -175 -102 -205 -119 -30 -16 -57 -30
-59 -32 -2 -2 2 -58 9 -124 12 -108 16 -123 34 -131 12 -4 199 -22 416 -40
217 -17 396 -33 398 -34 7 -6 -19 -45 -69 -105 -98 -119 -261 -214 -419 -246
-116 -23 -301 -15 -420 19 -259 73 -495 276 -614 527 -63 134 -78 194 -83 347
-7 167 10 247 79 386 85 170 234 301 413 362 142 49 336 55 487 16z m-2647
-338 c-15 -347 -26 -614 -36 -938 -7 -198 -13 -361 -14 -363 -1 -1 -45 3 -96
9 -264 33 -430 56 -433 60 -3 2 -12 72 -20 154 -9 83 -23 213 -31 290 -8 77
-19 192 -25 255 -5 63 -19 212 -30 330 -14 152 -17 216 -9 221 6 3 37 9 68 13
118 14 566 78 570 82 2 2 17 4 33 4 l28 0 -5 -117z"/>
<path d="M6890 13135 l0 -325 315 0 315 0 0 325 0 325 -315 0 -315 0 0 -325z"/>
<path d="M9660 13135 l0 -325 315 0 315 0 0 325 0 325 -315 0 -315 0 0 -325z"/>
<path d="M6167 8233 c-4 -3 -7 -287 -7 -630 l0 -623 403 2 402 3 3 605 c1 333
0 615 -3 628 l-5 22 -394 0 c-216 0 -396 -3 -399 -7z"/>
<path d="M9504 2256 c21 -463 26 -540 34 -548 5 -5 98 -7 208 -6 l199 3 8 328
c5 181 7 331 4 334 -3 2 -86 11 -184 18 -98 8 -200 16 -227 18 l-49 4 7 -151z"/>
<path d="M3370 3060 c-74 -16 -187 -39 -250 -51 -63 -12 -119 -25 -123 -29 -4
-4 2 -29 14 -56 12 -27 47 -112 79 -189 126 -306 121 -297 150 -290 60 15 460
180 460 189 0 6 -16 54 -36 106 -19 52 -56 152 -81 223 -34 93 -50 127 -62
126 -9 0 -77 -14 -151 -29z"/>
<path d="M4650 2407 c0 -2 -22 -104 -50 -228 -27 -123 -50 -234 -50 -245 0
-19 23 -30 198 -89 342 -116 362 -122 368 -114 7 12 105 551 101 555 -7 8
-532 124 -558 124 -5 0 -9 -1 -9 -3z"/>
<path d="M7835 2398 c-16 -49 -105 -444 -105 -469 0 -13 14 -23 48 -33 26 -8
152 -50 280 -94 158 -53 235 -75 241 -68 10 12 104 547 97 553 -6 6 -526 123
-547 123 -5 0 -12 -6 -14 -12z"/>
<path d="M13727 2393 c-8 -13 25 -273 35 -273 5 0 32 15 61 34 28 19 108 69
177 111 69 43 127 79 129 81 15 14 -34 23 -179 33 -91 6 -177 14 -192 17 -14
3 -29 1 -31 -3z"/>
</g>
</svg>
